<svg xmlns="http://www.w3.org/2000/svg" viewBox="0 0 117.12 42" height="20px">
  <g id="Layer_2" data-name="Layer 2">
    <g id="Layer_1-2" data-name="Layer 1">
      <g>
        <path d="M30.42,31H9.9L5.52,42H0L16.86,0H23.7L40.44,42H34.8ZM28.5,26,20.16,5,11.82,26Z"/>
        <path d="M46.44,0H64.2c7.62,0,13.08,4.8,13.08,11.34,0,5.22-2.88,9.12-6.72,10.44,4.56,0,6.12,1.62,6.12,5.82V42h-5.4V28.62c0-2.82-.9-3.72-3.72-3.72H51.84V42h-5.4ZM63.36,20c5,0,8.52-3.3,8.52-7.86s-3.18-7.2-8.52-7.2H51.84V20Z"/>
        <path d="M96.6,4.92H81.48V0h35.64V4.92H102V42H96.6Z"/>
      </g>
    </g>
  </g>
</svg>
