<svg xmlns="http://www.w3.org/2000/svg" viewBox="0 0 335.26 43.2" height="20px">
  <g id="Layer_2" data-name="Layer 2">
    <g id="Layer_1-2" data-name="Layer 1">
      <g>
        <path d="M0,.6H30.18V5.52H5.4v13H26.58v4.92H5.4V37.68H30.78V42.6H0Z"/>
        <path d="M38.94.6H53.76C65.34.6,73.08,8.46,73.08,21.66S65.34,42.6,53.76,42.6H38.94ZM53.16,37.68c9.24,0,14.52-5.64,14.52-16.08S62.4,5.52,53.16,5.52H44.34V37.68Z"/>
        <path d="M81.3,27.6V.6h5.4V27c0,7.14,3.42,11.28,10,11.28h.6c6.54,0,10-4.14,10-11.28V.6h5.4v27c0,9.3-5.34,15.6-15.66,15.6C86.34,43.2,81.3,36.9,81.3,27.6Z"/>
        <path d="M120.84,21.6c0-12.3,7.44-21.6,19.62-21.6,9.06,0,16,5.4,16.56,13.68h-5.4c-.6-5-4.56-8.76-10.86-8.76h-.6c-9,0-13.92,7.44-13.92,16.68s4.92,16.68,13.92,16.68h.6c6.3,0,10.26-3.72,10.86-8.76H157c-.54,8.28-7.5,13.68-16.56,13.68C128.28,43.2,120.84,33.9,120.84,21.6Z"/>
        <path d="M190.26,31.56H169.74l-4.38,11h-5.52L176.7.6h6.84l16.74,42h-5.64Zm-1.92-4.92L180,5.58l-8.34,21.06Z"/>
        <path d="M211.92,5.52H196.8V.6h35.64V5.52H217.32V42.6h-5.4Z"/>
        <path d="M238.92.6h5.4v42h-5.4Z"/>
        <path d="M253,21.6C253,8.1,261.24,0,272.52,0s19.62,8.1,19.62,21.6-8.34,21.6-19.62,21.6S253,35.1,253,21.6Zm19.86,16.68c8,0,13.92-6.24,13.92-16.68S280.86,4.92,272.82,4.92h-.6c-8,0-13.86,6.24-13.86,16.68s5.82,16.68,13.86,16.68Z"/>
        <path d="M334.26.6v42h-7.32L306.12,7.32V42.6h-5.4V.6h7.44l20.7,35.1V.6Z"/>
      </g>
    </g>
  </g>
</svg>
