<svg xmlns="http://www.w3.org/2000/svg" viewBox="0 0 154.14 42" height="20px">
  <g id="Layer_2" data-name="Layer 2">
    <g id="Layer_1-2" data-name="Layer 1">
      <g>
        <path d="M0,0H5.4V18.54H27.54V0h5.4V42h-5.4V23.46H5.4V42H0Z"/>
        <path d="M44,0H72.9V4.92H49.38V19.14H69.9v4.92H49.38V42H44Z"/>
        <path d="M80,0H98.1C104.7,0,110,4.14,110,11a10,10,0,0,1-6.84,9.66c4.26.72,7.74,4.08,7.74,9.84,0,7-5.58,11.46-12.24,11.46H80ZM97.38,18.24c4.26,0,7.2-2.46,7.2-6.66s-2.94-6.66-7.2-6.66H85.44V18.24Zm.18,18.84c4.68,0,7.92-2.46,7.92-7s-3.24-7-7.92-7H85.44V37.08Z"/>
        <path d="M133,21.06l-7.92,8V42h-5.4V0h5.4V21.66L146.76,0h7.08L136.92,17.1,154.14,42h-6.78Z"/>
      </g>
    </g>
  </g>
</svg>
