<svg id="Layer_1" data-name="Layer 1" xmlns="http://www.w3.org/2000/svg" viewBox="0 0 332.86 42.6" height="20px">
  <g>
    <path d="M422.05,265.05l-10.26,42h-7.5l-8.7-35.94-8.7,35.94h-7.5l-10.26-42h5.58l8.58,36.48,8.82-36.48h7.32l8.7,36.6,8.34-36.6Z" transform="translate(-369.13 -265.05)"/>
    <path d="M452.77,296H432.25l-4.38,11h-5.52l16.86-42h6.84l16.74,42h-5.64Zm-1.92-4.92L442.51,270l-8.34,21.06Z" transform="translate(-369.13 -265.05)"/>
    <path d="M468.79,265.05h17.76c7.62,0,13.08,4.8,13.08,11.34,0,5.22-2.88,9.12-6.72,10.44,4.56,0,6.12,1.62,6.12,5.82v14.4h-5.4V293.67c0-2.82-.9-3.72-3.72-3.72H474.19v17.1h-5.4Zm16.92,20c5,0,8.52-3.3,8.52-7.86s-3.18-7.2-8.52-7.2H474.19V285Z" transform="translate(-369.13 -265.05)"/>
    <path d="M519,270H503.83v-4.92h35.64V270H524.35v37.08H519Z" transform="translate(-369.13 -265.05)"/>
    <path d="M546,265.05h30.18V270H551.35v13h21.18v4.92H551.35v14.22h25.38v4.92H546Z" transform="translate(-369.13 -265.05)"/>
    <path d="M618.43,265.05v42h-7.32l-20.82-35.28v35.28h-5.4v-42h7.44l20.7,35.1v-35.1Z" transform="translate(-369.13 -265.05)"/>
    <path d="M654.79,296H634.27l-4.38,11h-5.52l16.86-42h6.84l16.74,42h-5.64Zm-1.92-4.92L644.53,270l-8.34,21.06Z" transform="translate(-369.13 -265.05)"/>
    <path d="M669.61,292.05v-27H675v26.4c0,7.14,3.42,11.28,10,11.28h.6c6.54,0,10-4.14,10-11.28v-26.4H701v27c0,9.3-5.34,15.6-15.66,15.6C674.65,307.65,669.61,301.35,669.61,292.05Z" transform="translate(-369.13 -265.05)"/>
  </g>
</svg>
