<svg width="142" height="69" viewBox="0 0 142 69" fill="none" xmlns="http://www.w3.org/2000/svg">
<path d="M3.2561 18H5.44786V10.4749H14.4341V18H16.6259V0.952938H14.4341V8.478H5.44786V0.952938H3.2561V18ZM21.1165 18H23.3083V10.7185H31.637V8.72153H23.3083V2.94988H32.8546V0.952938H21.1165V18ZM35.7425 18H43.292C45.9951 18 48.26 16.1979 48.26 13.3486C48.26 11.0107 46.8475 9.64694 45.1184 9.3547C46.677 8.81894 47.8947 7.38212 47.8947 5.43388C47.8947 2.63329 45.7516 0.952938 43.0728 0.952938H35.7425V18ZM37.9343 8.35623V2.94988H42.7805C44.5096 2.94988 45.7029 3.94835 45.7029 5.65306C45.7029 7.35776 44.5096 8.35623 42.7805 8.35623H37.9343ZM37.9343 16.0031V10.3532H42.8536C44.7531 10.3532 46.0682 11.3516 46.0682 13.1781C46.0682 15.0046 44.7531 16.0031 42.8536 16.0031H37.9343ZM63.0698 18H65.8217L58.8324 7.89353L65.6999 0.952938H62.8262L54.0348 9.74435V0.952938H51.8431V18H54.0348V12.7398L57.2494 9.50082L63.0698 18Z" fill="black"/>
<path d="M107.228 36.2351H109.517L102.723 19.188H99.9464L93.1033 36.2351H95.3437L97.1215 31.7542H105.45L107.228 36.2351ZM97.9008 29.7572L101.286 21.2093L104.671 29.7572H97.9008ZM111.963 36.2351H114.155V29.2945H120.536C121.68 29.2945 122.046 29.6598 122.046 30.8044V36.2351H124.237V30.3904C124.237 28.6857 123.604 28.0282 121.753 28.0282C123.312 27.4924 124.481 25.9095 124.481 23.7908C124.481 21.1363 122.265 19.188 119.172 19.188H111.963V36.2351ZM114.155 27.2976V21.185H118.831C120.998 21.185 122.289 22.2322 122.289 24.1073C122.289 25.9582 120.877 27.2976 118.831 27.2976H114.155ZM132.326 36.2351H134.518V21.185H140.655V19.188H126.189V21.185H132.326V36.2351ZM3.08869 62.2351H15.5818V60.2382H5.28046V54.4665H13.877V52.4696H5.28046V47.185H15.3382V45.188H3.08869V62.2351ZM18.9038 62.2351H24.919C29.6191 62.2351 32.7607 59.0936 32.7607 53.7359C32.7607 48.3783 29.6191 45.188 24.919 45.188H18.9038V62.2351ZM21.0956 60.2382V47.185H24.6755C28.4258 47.185 30.5689 49.4742 30.5689 53.7116C30.5689 57.949 28.4258 60.2382 24.6755 60.2382H21.0956ZM42.4754 62.4786C46.6641 62.4786 48.8315 59.9216 48.8315 56.1469V45.188H46.6397V55.9033C46.6397 58.8013 45.2516 60.4817 42.5972 60.4817H42.3536C39.6748 60.4817 38.2867 58.8013 38.2867 55.9033V45.188H36.0949V56.1469C36.0949 59.9216 38.1406 62.4786 42.4754 62.4786ZM60.1145 62.4786C63.7918 62.4786 66.6168 60.2869 66.8359 56.9262H64.6442C64.4007 58.9718 62.7934 60.4817 60.2363 60.4817H59.9928C56.3398 60.4817 54.3429 57.4619 54.3429 53.7116C54.3429 49.9612 56.3398 46.9415 59.9928 46.9415H60.2363C62.7934 46.9415 64.4007 48.4513 64.6442 50.497H66.8359C66.6168 47.1363 63.7918 44.9445 60.1145 44.9445C55.1709 44.9445 52.1511 48.7192 52.1511 53.7116C52.1511 58.7039 55.1709 62.4786 60.1145 62.4786ZM82.114 62.2351H84.4032L77.6087 45.188H74.8325L67.9893 62.2351H70.2298L72.0075 57.7542H80.3362L82.114 62.2351ZM72.7868 55.7572L76.1719 47.2093L79.5569 55.7572H72.7868ZM89.1379 62.2351H91.3297V47.185H97.4666V45.188H83.001V47.185H89.1379V62.2351ZM100.096 62.2351H102.288V45.188H100.096V62.2351ZM113.743 62.4786C118.322 62.4786 121.707 59.191 121.707 53.7116C121.707 48.2322 118.322 44.9445 113.743 44.9445C109.165 44.9445 105.804 48.2322 105.804 53.7116C105.804 59.191 109.165 62.4786 113.743 62.4786ZM113.622 60.4817C110.358 60.4817 107.996 57.949 107.996 53.7116C107.996 49.4742 110.358 46.9415 113.622 46.9415H113.865C117.128 46.9415 119.515 49.4742 119.515 53.7116C119.515 57.949 117.128 60.4817 113.865 60.4817H113.622ZM136.608 45.188V59.4345L128.206 45.188H125.186V62.2351H127.378V47.9156L135.829 62.2351H138.8V45.188H136.608Z" fill="black"/>
<path d="M73.0586 7.61035H133.434V14.2059" stroke="black" stroke-width="2.02941"/>
<path d="M86.25 28.4116H4.05881V34.4999" stroke="black" stroke-width="2.02941"/>
</svg>
